<?xml version="1.0" encoding="UTF-8"?>
<svg id="b" data-name="Capa 2" xmlns="http://www.w3.org/2000/svg" viewBox="0 0 1298.454 216.635">
  <defs>
    <style>
      .d {
        fill: #ff725c;
      }
    </style>
  </defs>
  <g id="c" data-name="2. Logo principal">
    <g>
      <path class="d" d="M482.176,59.808c-8.269-5.696-18.162-8.544-29.675-8.544h-43.915c-3.187,0-5.851,1.074-7.993,3.215s-3.216,4.809-3.216,7.993v106.205c0,3.187,1.071,5.851,3.216,7.993,2.142,2.145,4.806,3.215,7.993,3.215h43.915c11.513,0,21.406-2.848,29.675-8.544,8.269-5.696,14.576-13.414,18.926-23.152,4.347-9.739,6.523-20.608,6.523-32.615s-2.176-22.876-6.523-32.615c-4.35-9.738-10.657-17.456-18.926-23.152ZM475.469,146.536c-5.512,8.148-13.781,12.219-24.806,12.219h-30.318v-86.36h30.318c10.901,0,19.138,4.074,24.714,12.219,5.573,8.148,8.36,18.466,8.36,30.961s-2.756,22.816-8.269,30.961Z"/>
      <path class="d" d="M598.118,86.268c-7.657-4.347-16.078-6.523-25.265-6.523-9.311,0-17.763,2.176-25.357,6.523-7.597,4.35-13.597,10.413-18.007,18.191-4.41,7.78-6.615,16.568-6.615,26.367s2.205,18.59,6.615,26.368c4.41,7.78,10.41,13.812,18.007,18.099,7.594,4.29,16.046,6.431,25.357,6.431,9.188,0,17.608-2.142,25.265-6.431,7.654-4.286,13.689-10.318,18.099-18.099,4.41-7.778,6.615-16.566,6.615-26.368s-2.205-18.587-6.615-26.367c-4.41-7.778-10.445-13.841-18.099-18.191ZM597.015,146.812c-2.512,4.657-5.88,8.269-10.106,10.841-4.226,2.573-8.912,3.859-14.057,3.859s-9.83-1.286-14.057-3.859c-4.226-2.572-7.597-6.184-10.106-10.841-2.512-4.654-3.767-9.982-3.767-15.986s1.255-11.36,3.767-16.078c2.509-4.714,5.88-8.36,10.106-10.933,4.227-2.573,8.912-3.859,14.057-3.859s9.831,1.286,14.057,3.859c4.226,2.572,7.594,6.218,10.106,10.933,2.509,4.717,3.767,10.077,3.767,16.078s-1.257,11.332-3.767,15.986Z"/>
      <path class="d" d="M722.604,79.745c-3.188,0-5.818,1.074-7.9,3.215-2.084,2.145-3.125,4.809-3.125,7.993v2.021c-3.307-3.675-7.656-6.798-13.045-9.371-5.393-2.573-11.209-3.859-17.455-3.859-8.453,0-16.143,2.176-23.061,6.523-6.922,4.35-12.375,10.413-16.354,18.191-3.982,7.78-5.972,16.568-5.972,26.367s2.021,18.559,6.063,26.276,9.583,13.752,16.629,18.099c7.043,4.35,14.852,6.523,23.428,6.523,6.248,0,12.096-1.533,17.547-4.594,5.449-3.061,9.523-6.491,12.219-10.29v8.82c0,6.615-2.236,11.728-6.705,15.343-4.475,3.612-11.24,5.42-20.305,5.42-4.533,0-9.586-1.074-15.158-3.216-5.576-2.145-8.607-3.278-9.096-3.399-1.104-.368-2.268-.551-3.492-.551-2.083,0-4.013.703-5.787,2.113-1.777,1.407-3.032,3.46-3.767,6.156-.367,1.103-.551,2.082-.551,2.94,0,4.53,3,8.084,9.004,10.657,2.693,1.223,7.258,2.449,13.689,3.675,6.43,1.223,11.484,1.837,15.158,1.837,14.209,0,25.938-3.583,35.188-10.749,9.248-7.166,13.873-18.223,13.873-33.166v-81.767c0-3.308-1.043-6-3.125-8.085-2.084-2.082-4.717-3.124-7.9-3.124ZM704.69,152.783c-5.209,5.82-11.916,8.728-20.121,8.728s-14.883-2.908-20.027-8.728c-5.146-5.816-7.719-13.138-7.719-21.958s2.572-16.169,7.719-22.049c5.145-5.88,11.818-8.82,20.027-8.82s14.912,2.94,20.121,8.82c5.205,5.88,7.809,13.229,7.809,22.049s-2.604,16.141-7.809,21.958Z"/>
      <path class="d" d="M810.066,79.745c-6.37,0-12.219,1.593-17.547,4.777-5.329,3.187-9.647,6.982-12.954,11.392v-3.124c0-3.184-1.043-5.848-3.124-7.993-2.084-2.142-4.717-3.216-7.901-3.216s-5.819,1.074-7.9,3.216c-2.085,2.145-3.124,4.809-3.124,7.993v75.887c0,3.187,1.039,5.851,3.124,7.993,2.081,2.145,4.714,3.215,7.9,3.215s5.817-1.071,7.901-3.215c2.081-2.142,3.124-4.806,3.124-7.993v-47.039c0-6.248,2.021-11.421,6.063-15.526,4.042-4.103,9.615-6.156,16.721-6.156,6.858,0,11.696,1.929,14.516,5.788,2.816,3.858,4.227,9.159,4.227,15.894v47.039c0,3.187,1.039,5.851,3.123,7.993,2.082,2.145,4.715,3.215,7.901,3.215s5.816-1.071,7.901-3.215c2.081-2.142,3.123-4.806,3.123-7.993v-47.039c0-13.106-2.389-23.364-7.166-30.777-4.777-7.41-13.413-11.117-25.908-11.117Z"/>
      <path class="d" d="M946.588,79.745c-3.187,0-5.819,1.074-7.9,3.215-2.085,2.145-3.124,4.809-3.124,7.993v.184c-3.555-3.307-7.901-6.032-13.046-8.177-5.145-2.142-10.657-3.215-16.537-3.215-8.208,0-15.71,2.176-22.509,6.523-6.799,4.35-12.159,10.413-16.078,18.191-3.922,7.78-5.88,16.568-5.88,26.367s1.99,18.559,5.972,26.276c3.979,7.717,9.4,13.752,16.262,18.099,6.859,4.35,14.516,6.523,22.969,6.523,5.756,0,11.236-1.257,16.444-3.767,5.206-2.509,9.34-5.541,12.403-9.096.12,3.187,1.194,5.82,3.216,7.901,2.021,2.084,4.622,3.124,7.809,3.124s5.816-1.071,7.901-3.215c2.081-2.142,3.123-4.806,3.123-7.993v-77.724c0-3.308-1.042-6-3.123-8.085-2.085-2.082-4.717-3.124-7.901-3.124ZM928.948,152.783c-5.024,5.82-11.516,8.728-19.477,8.728s-14.424-2.908-19.385-8.728c-4.962-5.816-7.442-13.138-7.442-21.958s2.51-16.169,7.534-22.049c5.021-5.88,11.452-8.82,19.293-8.82,7.961,0,14.452,2.94,19.477,8.82,5.021,5.88,7.534,13.229,7.534,22.049s-2.513,16.141-7.534,21.958Z"/>
      <path class="d" d="M1026.147,103.632c2.939,0,5.389-.947,7.35-2.848,1.958-1.898,2.939-4.255,2.939-7.074,0-2.94-.981-5.389-2.939-7.35-1.961-1.958-4.41-2.94-7.35-2.94h-13.046v-11.76c0-3.184-1.042-5.848-3.124-7.993-2.084-2.142-4.656-3.215-7.717-3.215-3.188,0-5.852,1.074-7.993,3.215s-3.216,4.809-3.216,7.993v11.76h-8.452c-2.939,0-5.392.951-7.35,2.848-1.961,1.901-2.94,4.258-2.94,7.074,0,2.94.979,5.392,2.94,7.35,1.958,1.961,4.41,2.94,7.35,2.94h8.452v50.714c0,10.537,2.602,17.427,7.81,20.671,5.205,3.247,11.604,4.869,19.201,4.869,4.53,0,8.604-1.131,12.219-3.399,3.612-2.265,5.421-5.053,5.421-8.36,0-2.693-.706-4.869-2.113-6.523-1.409-1.654-2.972-2.48-4.686-2.48-1.35,0-2.756.307-4.227.919-1.717.491-3.062.735-4.042.735-2.328,0-4.166-.58-5.513-1.746-1.349-1.163-2.021-3.032-2.021-5.604v-49.795h13.046Z"/>
      <path class="d" d="M1075.39,49.795c-1.717-1.347-4.717-2.021-9.004-2.021-4.042,0-6.982.675-8.819,2.021-1.838,1.349-2.756,3.738-2.756,7.166v3.491c0,3.431.855,5.819,2.572,7.166,1.714,1.349,4.653,2.021,8.819,2.021,4.286,0,7.318-.643,9.096-1.929,1.774-1.286,2.664-3.704,2.664-7.258v-3.491c0-3.428-.858-5.817-2.572-7.166Z"/>
      <path class="d" d="M1066.386,81.582c-3.187,0-5.819,1.074-7.9,3.216-2.085,2.145-3.124,4.809-3.124,7.993v75.887c0,3.187,1.039,5.851,3.124,7.993,2.081,2.145,4.714,3.215,7.9,3.215s5.817-1.071,7.901-3.215c2.081-2.142,3.124-4.806,3.124-7.993v-75.887c0-3.184-1.043-5.848-3.124-7.993-2.084-2.142-4.717-3.216-7.901-3.216Z"/>
      <path class="d" d="M1169.742,86.268c-7.657-4.347-16.078-6.523-25.265-6.523-9.312,0-17.764,2.176-25.357,6.523-7.597,4.35-13.597,10.413-18.007,18.191-4.41,7.78-6.615,16.568-6.615,26.367s2.205,18.59,6.615,26.368c4.41,7.78,10.41,13.812,18.007,18.099,7.594,4.29,16.046,6.431,25.357,6.431,9.187,0,17.607-2.142,25.265-6.431,7.654-4.286,13.688-10.318,18.099-18.099,4.41-7.778,6.615-16.566,6.615-26.368s-2.205-18.587-6.615-26.367c-4.41-7.778-10.444-13.841-18.099-18.191ZM1168.64,146.812c-2.512,4.657-5.88,8.269-10.106,10.841-4.226,2.573-8.911,3.859-14.056,3.859s-9.831-1.286-14.057-3.859c-4.227-2.572-7.597-6.184-10.106-10.841-2.512-4.654-3.767-9.982-3.767-15.986s1.255-11.36,3.767-16.078c2.51-4.714,5.88-8.36,10.106-10.933,4.226-2.573,8.911-3.859,14.057-3.859s9.83,1.286,14.056,3.859c4.227,2.572,7.595,6.218,10.106,10.933,2.509,4.717,3.767,10.077,3.767,16.078s-1.258,11.332-3.767,15.986Z"/>
      <path class="d" d="M1291.288,90.862c-4.777-7.41-13.413-11.117-25.908-11.117-6.37,0-12.219,1.593-17.547,4.777-5.329,3.187-9.647,6.982-12.954,11.392v-3.124c0-3.184-1.043-5.848-3.124-7.993-2.084-2.142-4.717-3.216-7.901-3.216s-5.819,1.074-7.9,3.216c-2.085,2.145-3.124,4.809-3.124,7.993v75.887c0,3.187,1.039,5.851,3.124,7.993,2.081,2.145,4.714,3.215,7.9,3.215s5.817-1.071,7.901-3.215c2.081-2.142,3.124-4.806,3.124-7.993v-47.039c0-6.248,2.021-11.421,6.063-15.526,4.042-4.103,9.615-6.156,16.721-6.156,6.858,0,11.696,1.929,14.516,5.788,2.816,3.858,4.227,9.159,4.227,15.894v47.039c0,3.187,1.039,5.851,3.123,7.993,2.082,2.145,4.715,3.215,7.901,3.215s5.816-1.071,7.901-3.215c2.081-2.142,3.123-4.806,3.123-7.993v-47.039c0-13.106-2.389-23.364-7.166-30.777Z"/>
      <path class="d" d="M317.434,156.242l-24.483-17.483c.042-.181.078-.364.112-.547,5.269-29.62,5.225-60.899-.123-88.076-3.008-15.279-10.199-41.848-24.561-48.124-2.096-.915-4.394-1.379-6.831-1.379-3.473,0-7.289.948-11.339,2.816-16.393,7.563-39.904,31.314-54.151,66.117l-27.718-19.792c-1.937-1.382-4.217-2.114-6.597-2.114-2.362,0-4.63.722-6.556,2.086l-26.888,19.036C114.04,34.057,90.563,10.362,74.208,2.816c-4.05-1.869-7.865-2.816-11.338-2.816-2.438,0-4.737.464-6.836,1.38-14.361,6.276-21.552,32.844-24.56,48.123-5.341,27.129-5.392,58.349-.147,87.929l-26.533,18.784c-2.474,1.751-4.118,4.362-4.63,7.349-.51,2.988.173,5.996,1.923,8.469,2.124,3.001,5.59,4.793,9.27,4.793,2.357,0,4.623-.722,6.549-2.087l8.837-6.257-.024,33.764c-.002,3.031,1.176,5.882,3.319,8.027,2.141,2.145,4.991,3.327,8.03,3.33,6.252,0,11.344-5.087,11.348-11.341l.035-49.855,112.261-79.475,112.777,80.534v48.788c0,6.257,5.09,11.348,11.348,11.348s11.348-5.091,11.348-11.348v-32.581l7.055,5.038c1.936,1.382,4.215,2.114,6.589,2.114,3.662,0,7.117-1.778,9.242-4.754,3.636-5.092,2.452-12.193-2.641-15.83ZM52.044,122.765c-2.97-23.109-2.463-46.962,1.483-67.751,3.561-18.762,8.497-28.29,10.917-31.707,3.249,1.482,10.277,5.834,19.259,15.913,10.654,11.953,19.651,27.168,25.503,43.079l-57.161,40.467ZM272.291,124.006l-57.172-40.827c5.852-16.005,14.881-31.309,25.595-43.328,8.983-10.079,16.01-14.43,19.259-15.912,2.419,3.417,7.355,12.945,10.914,31.706,3.982,20.989,4.461,45.057,1.404,68.361Z"/>
      <path class="d" d="M180.126,147.04c-1.747-.716-3.554-1.078-5.371-1.078-2.575,0-5.213.732-7.836,2.176-2.538,1.394-4.414,3.284-5.852,5.088-1.653-1.938-3.801-3.989-6.646-5.424-2.459-1.238-4.891-1.866-7.226-1.866-2.738,0-5.32.847-7.676,2.517-4.165,2.948-6.665,7.356-7.227,12.749-.471,4.543.394,9.141,2.57,13.663,4.154,8.66,10.907,15.74,20.641,21.643,2.046,1.243,4.138,1.872,6.216,1.872,2.259,0,4.517-.744,6.718-2.213,8.224-5.499,14.62-12.804,19.009-21.711,1.237-2.508,2.023-4.892,2.371-7.208h.064l.027-.685c.103-.907.138-1.805.107-2.697.128-3.552-.659-6.86-2.342-9.832-1.905-3.373-4.446-5.726-7.549-6.994Z"/>
    </g>
  </g>
</svg>