<svg width="313" height="122" viewBox="0 0 313 122" fill="none" xmlns="http://www.w3.org/2000/svg">
<g clip-path="url(#clip0_124_5)">
<path d="M24.9 28.6693L31.619 24.9549C32.0142 27.366 34.188 32.7354 39.7214 34.9249L25.4928 42.549L17.1928 38.0527C16.3365 39.0953 14.5052 41.8843 14.031 43.9174L21.3429 48.2182V71.4814L13.8333 75.7822C14.2285 77.0854 15.4537 80.122 17.1928 81.8424L25.0976 77.5416L42.488 87.3161C43.2785 87.7723 44.6223 89.271 43.6737 91.6165L37.7452 101L35.3737 97.4814L24.5047 91.4214L14.8214 96.5043C5.6519 89.9357 1.11984 77.2158 0 71.6769L9.88094 65.8122V53.3009L0 47.8272C1.73905 37.0362 10.6056 26.7795 14.8214 23L24.9 28.6693Z" fill="#004F71"/>
<path d="M72.8841 28.6693L66.1068 24.9549C65.7081 27.366 63.5155 32.7354 57.9341 34.9249L72.2861 42.549L80.658 38.0527C81.5218 39.0953 83.369 41.8843 83.8474 43.9174L76.4721 48.2182V71.4814L84.0467 75.7822C83.648 77.0854 82.4122 80.122 80.658 81.8424L72.6848 77.5416L55.1435 87.3161C54.3462 87.7723 53.459 89.271 54.4158 91.6165L60.5952 101L62.3195 97.4814L73.2828 91.4214L83.05 96.5043C92.2989 89.9357 96.8704 77.2158 98 71.6769L88.0333 65.8122V53.3009L98 47.8272C96.2458 37.0362 87.3025 26.7795 83.05 23L72.8841 28.6693Z" fill="#004F71"/>
<path d="M50 48.4854V38L69 48.6796V58H59.5V53.534L56.1354 51.7864L50 48.4854Z" fill="#784212"/>
<path d="M28 71.5893V48.8036L48 38V48.6071L38.3092 53.7143V65.6965L48 71.0001V82L28 71.5893Z" fill="#784212"/>
<path d="M69 71.5982V61H50.5937L59.5 63.944V65.7103L50 71.0094V82L69 71.5982Z" fill="#6D6D6D"/>
<path d="M40.8897 13.2078C42.9105 10.2596 47.0803 3.36669 48.8775 0C50.5417 3.2372 54.4291 10.4109 56.6657 13.2078C72.4414 38.0695 26.3115 38.458 40.8897 13.2078Z" fill="#004F71"/>
<path d="M40.8897 103.208C42.9105 100.259 47.0803 93.3664 48.8775 90C50.5417 93.2371 54.4291 100.411 56.6657 103.208C72.4414 128.07 26.3115 128.458 40.8897 103.208Z" fill="#004F71"/>
<path d="M55.6011 110.629C59.3143 107.909 57.8702 105.576 56.8388 104.216L53.7446 99.5513L50.8566 94.4984L49 91L49.6189 100.912C49.8251 103.633 49.4126 112.961 55.6011 110.629Z" fill="#376DA9"/>
<path d="M55.6011 19.6293C59.3143 16.9084 57.8702 14.5762 56.8388 13.2158L53.7446 8.55139L50.8566 3.4983L49 0L49.6189 9.91188C49.8251 12.6328 49.4126 21.9615 55.6011 19.6293Z" fill="#376DA9"/>
<g clip-path="url(#paint0_diamond_124_5_clip_path)" data-figma-skip-parse="true"><g transform="matrix(0.0869956 -7.97169e-10 -3.85391e-06 0.0140955 216.193 63.5544)"><rect x="0" y="0" width="1186.23" height="961.606" fill="url(#paint0_diamond_124_5)" opacity="1" shape-rendering="crispEdges"/><rect x="0" y="0" width="1186.23" height="961.606" transform="scale(1 -1)" fill="url(#paint0_diamond_124_5)" opacity="1" shape-rendering="crispEdges"/><rect x="0" y="0" width="1186.23" height="961.606" transform="scale(-1 1)" fill="url(#paint0_diamond_124_5)" opacity="1" shape-rendering="crispEdges"/><rect x="0" y="0" width="1186.23" height="961.606" transform="scale(-1)" fill="url(#paint0_diamond_124_5)" opacity="1" shape-rendering="crispEdges"/></g></g><path d="M123.088 71C121.172 71 119.538 70.5995 118.186 69.7984C116.835 68.9974 115.797 67.8847 115.073 66.4606C114.358 65.0365 114 63.3854 114 61.5074V60.8398C114 58.8994 114.358 57.1905 115.073 55.7129C115.788 54.2355 116.8 53.0829 118.107 52.255C119.423 51.4184 120.977 51 122.77 51C124.157 51 125.459 51.1914 126.678 51.5741C127.897 51.9569 128.957 52.531 129.858 53.2965V57.6088H126.996L126.453 55.0054C126.108 54.7027 125.645 54.4624 125.062 54.2844C124.479 54.0975 123.812 54.004 123.062 54.004C121.984 54.004 121.053 54.2934 120.266 54.8719C119.49 55.4415 118.893 56.2381 118.478 57.2617C118.063 58.2763 117.855 59.4602 117.855 60.8131V61.5074C117.855 62.8246 118.058 63.9728 118.464 64.9519C118.88 65.9222 119.485 66.6742 120.28 67.2083C121.074 67.7423 122.05 68.0093 123.208 68.0093C123.887 68.0093 124.51 67.947 125.075 67.8225C125.649 67.689 126.122 67.5287 126.493 67.3418V64.044L123.738 63.8304V61.0935H130.375V68.9572C129.518 69.5714 128.485 70.0654 127.274 70.4392C126.073 70.8132 124.678 71 123.088 71ZM132.864 70.7196V68.3832L134.918 67.9827V54.0308L132.864 53.6302V51.2804H147.833V56.5274H144.866L144.694 54.2844H138.786V59.1709H145.317V62.1749H138.786V67.729H145.012L145.185 65.4059H148.125V70.7196H132.864ZM159.571 71C158.272 71 157.088 70.7553 156.02 70.2657C154.952 69.7762 154.028 69.0908 153.252 68.2096C152.483 67.3195 151.892 66.2782 151.477 65.0855C151.061 63.8838 150.854 62.571 150.854 61.1469V60.8532C150.854 59.438 151.061 58.1339 151.477 56.9413C151.892 55.7397 152.483 54.6938 153.252 53.8038C154.02 52.9137 154.938 52.2238 156.007 51.7344C157.076 51.2448 158.26 51 159.557 51C160.864 51 162.057 51.2448 163.134 51.7344C164.212 52.2238 165.14 52.9137 165.916 53.8038C166.694 54.6938 167.29 55.7397 167.705 56.9413C168.129 58.1339 168.341 59.438 168.341 60.8532V61.1469C168.341 62.571 168.129 63.8838 167.705 65.0855C167.29 66.2782 166.694 67.3195 165.916 68.2096C165.14 69.0908 164.212 69.7762 163.134 70.2657C162.066 70.7553 160.878 71 159.571 71ZM159.571 67.9694C160.666 67.9694 161.575 67.6845 162.3 67.1149C163.023 66.5452 163.567 65.7485 163.929 64.725C164.3 63.7014 164.485 62.5087 164.485 61.1469V60.8264C164.485 59.4824 164.3 58.3031 163.929 57.2885C163.558 56.2648 163.006 55.4682 162.273 54.8986C161.549 54.3289 160.644 54.0441 159.557 54.0441C158.48 54.0441 157.584 54.3289 156.868 54.8986C156.152 55.4593 155.614 56.247 155.252 57.2617C154.899 58.2763 154.722 59.4646 154.722 60.8264V61.1469C154.722 62.5087 154.899 63.7014 155.252 64.725C155.614 65.7485 156.152 66.5452 156.868 67.1149C157.593 67.6845 158.494 67.9694 159.571 67.9694ZM170.434 70.7196V68.3832L172.486 67.9827V54.0308L170.434 53.6302V51.2804H185.787V56.6075H182.82L182.647 54.2844H176.355V59.6383H183.112V62.6422H176.355V67.9827L178.421 68.3832V70.7196H170.434ZM187.748 70.7196V68.3832L189.801 67.9827V54.0308L187.748 53.6302V51.2804H196.889C198.372 51.2804 199.643 51.5118 200.704 51.9747C201.763 52.4374 202.576 53.1006 203.141 53.964C203.715 54.8274 204.002 55.8643 204.002 57.0748C204.002 58.2141 203.72 59.2332 203.155 60.1323C202.589 61.0312 201.803 61.7388 200.796 62.255C199.789 62.7713 198.628 63.0338 197.312 63.0427H193.669V67.9827L195.735 68.3832V70.7196H187.748ZM200.16 70.7196L196.915 62.3218L200.399 61.454L203.207 67.996L204.85 68.3832V70.7196H200.16ZM193.669 60.0387H196.822C197.934 60.0387 198.765 59.8029 199.312 59.3311C199.868 58.8505 200.146 58.1563 200.146 57.2484C200.146 56.3493 199.873 55.6328 199.326 55.0988C198.777 54.5559 197.966 54.2844 196.889 54.2844H193.669V60.0387ZM206.744 70.7196V68.3832L208.122 68.183L214.255 51.2804H218.216L224.31 68.183L225.688 68.3832V70.7196H219.117V68.3832L220.455 68.1429L219.607 65.4727H212.825L211.977 68.1429L213.314 68.3832V70.7196H206.744ZM213.738 62.6021H218.693L216.441 55.94L216.256 55.3525H216.176L215.977 55.98L213.738 62.6021ZM235.901 71C234.029 71 232.4 70.6084 231.012 69.8252C229.627 69.033 228.553 67.9159 227.793 66.474C227.042 65.0231 226.667 63.3098 226.667 61.3338V60.6796C226.667 58.7927 227.03 57.1237 227.753 55.6729C228.487 54.2132 229.529 53.0694 230.88 52.2417C232.231 51.4139 233.839 51 235.703 51C237.01 51 238.233 51.187 239.372 51.5608C240.52 51.9346 241.545 52.5042 242.445 53.2697V57.9693H239.57L239.173 55.0188C238.882 54.8051 238.564 54.6226 238.219 54.4713C237.874 54.32 237.499 54.2043 237.093 54.1242C236.695 54.0441 236.263 54.004 235.795 54.004C234.7 54.004 233.76 54.2755 232.974 54.8185C232.187 55.3615 231.582 56.1313 231.158 57.1282C230.743 58.1162 230.535 59.2911 230.535 60.6529V61.3338C230.535 62.6957 230.757 63.875 231.198 64.8718C231.64 65.8687 232.267 66.6431 233.079 67.195C233.892 67.7379 234.855 68.0093 235.967 68.0093C236.523 68.0093 237.08 67.947 237.637 67.8225C238.202 67.689 238.714 67.5198 239.173 67.3151L239.57 64.5781H242.445V69.2243C241.694 69.7227 240.758 70.1455 239.637 70.4927C238.515 70.8309 237.27 71 235.901 71ZM248.817 70.7196V68.3832L250.884 67.9827V54.2844H247.372L247.161 56.6075H244.233V51.2804H261.442V56.6075H258.501L258.289 54.2844H254.752V67.9827L256.832 68.3832V70.7196H248.817ZM260.753 70.7196V68.3832L262.131 68.183L268.263 51.2804H272.224L278.319 68.183L279.697 68.3832V70.7196H273.125V68.3832L274.464 68.1429L273.616 65.4727H266.833L265.985 68.1429L267.323 68.3832V70.7196H260.753ZM267.747 62.6021H272.701L270.45 55.94L270.264 55.3525H270.185L269.986 55.98L267.747 62.6021ZM283.974 70.7196V68.3832L286.041 67.9827V54.2844H282.531L282.318 56.6075H279.392V51.2804H296.599V56.6075H293.659L293.446 54.2844H289.909V67.9827L291.989 68.3832V70.7196H283.974ZM298.494 70.7196V68.3832L300.547 67.9827V54.0308L298.494 53.6302V51.2804H300.547H304.415H306.746V53.6302L304.415 54.0308V67.729H309.86L310.045 64.8852H313V70.7196H298.494Z" data-figma-gradient-fill="{&#34;type&#34;:&#34;GRADIENT_DIAMOND&#34;,&#34;stops&#34;:[{&#34;color&#34;:{&#34;r&#34;:0.21568627655506134,&#34;g&#34;:0.42745098471641541,&#34;b&#34;:0.66274511814117432,&#34;a&#34;:1.0},&#34;position&#34;:0.26023796200752258},{&#34;color&#34;:{&#34;r&#34;:0.0,&#34;g&#34;:0.30980393290519714,&#34;b&#34;:0.44313725829124451,&#34;a&#34;:1.0},&#34;position&#34;:1.0}],&#34;stopsVar&#34;:[{&#34;color&#34;:{&#34;r&#34;:0.21568627655506134,&#34;g&#34;:0.42745098471641541,&#34;b&#34;:0.66274511814117432,&#34;a&#34;:1.0},&#34;position&#34;:0.26023796200752258},{&#34;color&#34;:{&#34;r&#34;:0.0,&#34;g&#34;:0.30980393290519714,&#34;b&#34;:0.44313725829124451,&#34;a&#34;:1.0},&#34;position&#34;:1.0}],&#34;transform&#34;:{&#34;m00&#34;:173.99116516113281,&#34;m01&#34;:-0.0077078109607100487,&#34;m02&#34;:129.20152282714844,&#34;m10&#34;:-1.5943377320581931e-06,&#34;m11&#34;:28.191057205200195,&#34;m12&#34;:49.458824157714844},&#34;opacity&#34;:1.0,&#34;blendMode&#34;:&#34;NORMAL&#34;,&#34;visible&#34;:true}"/>
</g>
<defs>
<clipPath id="paint0_diamond_124_5_clip_path"><path d="M123.088 71C121.172 71 119.538 70.5995 118.186 69.7984C116.835 68.9974 115.797 67.8847 115.073 66.4606C114.358 65.0365 114 63.3854 114 61.5074V60.8398C114 58.8994 114.358 57.1905 115.073 55.7129C115.788 54.2355 116.8 53.0829 118.107 52.255C119.423 51.4184 120.977 51 122.77 51C124.157 51 125.459 51.1914 126.678 51.5741C127.897 51.9569 128.957 52.531 129.858 53.2965V57.6088H126.996L126.453 55.0054C126.108 54.7027 125.645 54.4624 125.062 54.2844C124.479 54.0975 123.812 54.004 123.062 54.004C121.984 54.004 121.053 54.2934 120.266 54.8719C119.49 55.4415 118.893 56.2381 118.478 57.2617C118.063 58.2763 117.855 59.4602 117.855 60.8131V61.5074C117.855 62.8246 118.058 63.9728 118.464 64.9519C118.88 65.9222 119.485 66.6742 120.28 67.2083C121.074 67.7423 122.05 68.0093 123.208 68.0093C123.887 68.0093 124.51 67.947 125.075 67.8225C125.649 67.689 126.122 67.5287 126.493 67.3418V64.044L123.738 63.8304V61.0935H130.375V68.9572C129.518 69.5714 128.485 70.0654 127.274 70.4392C126.073 70.8132 124.678 71 123.088 71ZM132.864 70.7196V68.3832L134.918 67.9827V54.0308L132.864 53.6302V51.2804H147.833V56.5274H144.866L144.694 54.2844H138.786V59.1709H145.317V62.1749H138.786V67.729H145.012L145.185 65.4059H148.125V70.7196H132.864ZM159.571 71C158.272 71 157.088 70.7553 156.02 70.2657C154.952 69.7762 154.028 69.0908 153.252 68.2096C152.483 67.3195 151.892 66.2782 151.477 65.0855C151.061 63.8838 150.854 62.571 150.854 61.1469V60.8532C150.854 59.438 151.061 58.1339 151.477 56.9413C151.892 55.7397 152.483 54.6938 153.252 53.8038C154.02 52.9137 154.938 52.2238 156.007 51.7344C157.076 51.2448 158.26 51 159.557 51C160.864 51 162.057 51.2448 163.134 51.7344C164.212 52.2238 165.14 52.9137 165.916 53.8038C166.694 54.6938 167.29 55.7397 167.705 56.9413C168.129 58.1339 168.341 59.438 168.341 60.8532V61.1469C168.341 62.571 168.129 63.8838 167.705 65.0855C167.29 66.2782 166.694 67.3195 165.916 68.2096C165.14 69.0908 164.212 69.7762 163.134 70.2657C162.066 70.7553 160.878 71 159.571 71ZM159.571 67.9694C160.666 67.9694 161.575 67.6845 162.3 67.1149C163.023 66.5452 163.567 65.7485 163.929 64.725C164.3 63.7014 164.485 62.5087 164.485 61.1469V60.8264C164.485 59.4824 164.3 58.3031 163.929 57.2885C163.558 56.2648 163.006 55.4682 162.273 54.8986C161.549 54.3289 160.644 54.0441 159.557 54.0441C158.48 54.0441 157.584 54.3289 156.868 54.8986C156.152 55.4593 155.614 56.247 155.252 57.2617C154.899 58.2763 154.722 59.4646 154.722 60.8264V61.1469C154.722 62.5087 154.899 63.7014 155.252 64.725C155.614 65.7485 156.152 66.5452 156.868 67.1149C157.593 67.6845 158.494 67.9694 159.571 67.9694ZM170.434 70.7196V68.3832L172.486 67.9827V54.0308L170.434 53.6302V51.2804H185.787V56.6075H182.82L182.647 54.2844H176.355V59.6383H183.112V62.6422H176.355V67.9827L178.421 68.3832V70.7196H170.434ZM187.748 70.7196V68.3832L189.801 67.9827V54.0308L187.748 53.6302V51.2804H196.889C198.372 51.2804 199.643 51.5118 200.704 51.9747C201.763 52.4374 202.576 53.1006 203.141 53.964C203.715 54.8274 204.002 55.8643 204.002 57.0748C204.002 58.2141 203.72 59.2332 203.155 60.1323C202.589 61.0312 201.803 61.7388 200.796 62.255C199.789 62.7713 198.628 63.0338 197.312 63.0427H193.669V67.9827L195.735 68.3832V70.7196H187.748ZM200.16 70.7196L196.915 62.3218L200.399 61.454L203.207 67.996L204.85 68.3832V70.7196H200.16ZM193.669 60.0387H196.822C197.934 60.0387 198.765 59.8029 199.312 59.3311C199.868 58.8505 200.146 58.1563 200.146 57.2484C200.146 56.3493 199.873 55.6328 199.326 55.0988C198.777 54.5559 197.966 54.2844 196.889 54.2844H193.669V60.0387ZM206.744 70.7196V68.3832L208.122 68.183L214.255 51.2804H218.216L224.31 68.183L225.688 68.3832V70.7196H219.117V68.3832L220.455 68.1429L219.607 65.4727H212.825L211.977 68.1429L213.314 68.3832V70.7196H206.744ZM213.738 62.6021H218.693L216.441 55.94L216.256 55.3525H216.176L215.977 55.98L213.738 62.6021ZM235.901 71C234.029 71 232.4 70.6084 231.012 69.8252C229.627 69.033 228.553 67.9159 227.793 66.474C227.042 65.0231 226.667 63.3098 226.667 61.3338V60.6796C226.667 58.7927 227.03 57.1237 227.753 55.6729C228.487 54.2132 229.529 53.0694 230.88 52.2417C232.231 51.4139 233.839 51 235.703 51C237.01 51 238.233 51.187 239.372 51.5608C240.52 51.9346 241.545 52.5042 242.445 53.2697V57.9693H239.57L239.173 55.0188C238.882 54.8051 238.564 54.6226 238.219 54.4713C237.874 54.32 237.499 54.2043 237.093 54.1242C236.695 54.0441 236.263 54.004 235.795 54.004C234.7 54.004 233.76 54.2755 232.974 54.8185C232.187 55.3615 231.582 56.1313 231.158 57.1282C230.743 58.1162 230.535 59.2911 230.535 60.6529V61.3338C230.535 62.6957 230.757 63.875 231.198 64.8718C231.64 65.8687 232.267 66.6431 233.079 67.195C233.892 67.7379 234.855 68.0093 235.967 68.0093C236.523 68.0093 237.08 67.947 237.637 67.8225C238.202 67.689 238.714 67.5198 239.173 67.3151L239.57 64.5781H242.445V69.2243C241.694 69.7227 240.758 70.1455 239.637 70.4927C238.515 70.8309 237.27 71 235.901 71ZM248.817 70.7196V68.3832L250.884 67.9827V54.2844H247.372L247.161 56.6075H244.233V51.2804H261.442V56.6075H258.501L258.289 54.2844H254.752V67.9827L256.832 68.3832V70.7196H248.817ZM260.753 70.7196V68.3832L262.131 68.183L268.263 51.2804H272.224L278.319 68.183L279.697 68.3832V70.7196H273.125V68.3832L274.464 68.1429L273.616 65.4727H266.833L265.985 68.1429L267.323 68.3832V70.7196H260.753ZM267.747 62.6021H272.701L270.45 55.94L270.264 55.3525H270.185L269.986 55.98L267.747 62.6021ZM283.974 70.7196V68.3832L286.041 67.9827V54.2844H282.531L282.318 56.6075H279.392V51.2804H296.599V56.6075H293.659L293.446 54.2844H289.909V67.9827L291.989 68.3832V70.7196H283.974ZM298.494 70.7196V68.3832L300.547 67.9827V54.0308L298.494 53.6302V51.2804H300.547H304.415H306.746V53.6302L304.415 54.0308V67.729H309.86L310.045 64.8852H313V70.7196H298.494Z"/></clipPath><linearGradient id="paint0_diamond_124_5" x1="0" y1="0" x2="500" y2="500" gradientUnits="userSpaceOnUse">
<stop offset="0.260238" stop-color="#376DA9"/>
<stop offset="1" stop-color="#004F71"/>
</linearGradient>
<clipPath id="clip0_124_5">
<rect width="313" height="122" fill="white"/>
</clipPath>
</defs>
</svg>
