<?xml version="1.0" encoding="UTF-8"?>
<svg id="Capa_2" data-name="Capa 2" xmlns="http://www.w3.org/2000/svg" viewBox="0 0 2670.48 743.36">
  <defs>
    <style>
      .cls-1 {
        fill: #06f85a;
      }

      .cls-1, .cls-2, .cls-3 {
        stroke-width: 0px;
      }

      .cls-2 {
        fill: #00bab6;
      }

      .cls-3 {
        fill: #fff;
      }
    </style>
  </defs>
  <g id="Capa_17" data-name="Capa 17">
    <g>
      <g>
        <path class="cls-1" d="m4.05,356.64L201.35,16.77c12.97-22.35,45.25-22.37,58.25-.03h0c6.09,10.46,6.1,23.38.03,33.85L82.08,356.64c-5.39,9.29-5.4,20.75-.03,30.05l63.58,110.13c3.57,6.19,10.18,10,17.32,10h66.49s-39.02,67.58-39.02,67.58h-66.5c-7.15,0-13.75-3.81-17.32-10L4.02,386.7c-5.37-9.3-5.36-20.77.04-30.06Z"/>
        <path class="cls-2" d="m455.82,386.72l-197.3,339.86c-12.97,22.35-45.25,22.37-58.25.03h0c-6.09-10.46-6.1-23.38-.03-33.85l177.54-306.05c5.39-9.29,5.4-20.75.03-30.05l-63.58-110.13c-3.57-6.19-10.18-10-17.32-10h-66.49s39.02-67.58,39.02-67.58h66.5c7.15,0,13.75,3.81,17.32,10l102.58,177.7c5.37,9.3,5.36,20.77-.04,30.06Z"/>
      </g>
      <g>
        <path class="cls-3" d="m576.98,272.98v80.41h100.87v-80.41h34.79v197.36h-34.79v-82.45h-100.87v82.45h-34.5v-197.36h34.5Z"/>
        <path class="cls-3" d="m917.91,272.98v34.5h-98.83c-20.76,0-29.82,9.65-29.82,24.85,0,16.08,10.23,23.39,30.12,23.39h97.07v31.29h-97.95c-19.88,0-30.12,7.89-30.12,23.98s9.65,24.85,29.82,24.85h100v34.5h-100c-46.78,0-65.79-23.1-65.79-53.8,0-22.51,10.23-37.72,28.36-45.32-18.42-7.6-27.78-22.81-27.78-44.44,0-31.58,19.59-53.8,66.08-53.8h98.83Z"/>
        <path class="cls-3" d="m994.8,272.98l60.52,72.81,63.45-72.81h42.69l-84.5,97.07,85.09,100.29h-42.1l-65.5-78.36-67.25,78.36h-42.69l88.3-102.92-80.11-94.44h42.1Z"/>
        <path class="cls-3" d="m1216.72,470.34h-38.01l69.3-175.43c7.31-18.42,20.76-25.44,41.52-25.44s33.92,7.02,40.93,25.44l66.67,175.43h-38.3l-59.94-158.77c-1.75-4.68-4.97-6.72-9.65-6.72s-7.89,2.05-9.94,6.72l-62.57,158.77Z"/>
        <path class="cls-3" d="m1578.12,272.98v34.5h-81.28c-38.01,0-54.68,19.01-54.68,64.33s16.37,64.03,54.68,64.03h32.75c19.3,0,27.49-11.7,27.49-27.78s-8.19-25.15-24.27-25.15h-43.86v-30.12h47.37c35.09,0,52.34,21.64,52.34,55.85s-17.25,61.69-61.4,61.69h-30.41c-57.6,0-89.18-32.46-89.18-98.54s31.87-98.83,89.18-98.83h81.28Z"/>
        <path class="cls-3" d="m1734.55,272.98c44.44,0,63.45,27.48,63.45,59.06,0,24.56-11.7,50.88-41.81,59.36l45.9,78.95h-38.3l-45.03-76.31h-51.46c-3.22,0-4.97,1.46-4.97,4.97v71.34h-34.5v-78.07c0-22.22,9.36-31.29,30.99-31.29h76.9c19.59,0,27.48-13.45,27.48-27.48s-8.48-26.02-27.48-26.02h-108.18v-34.5h107.01Z"/>
        <path class="cls-3" d="m1856.47,470.34h-38.01l69.3-175.43c7.31-18.42,20.76-25.44,41.52-25.44s33.92,7.02,40.93,25.44l66.67,175.43h-38.3l-59.94-158.77c-1.75-4.68-4.97-6.72-9.65-6.72s-7.89,2.05-9.94,6.72l-62.57,158.77Z"/>
        <path class="cls-3" d="m2100.03,470.34h-34.21v-156.72c0-26.32,15.5-44.15,47.37-44.15,28.07,0,44.15,14.03,49.71,38.89l27.78,120.76c1.75,7.02,5.85,11.11,13.16,11.11s11.4-4.09,13.16-11.11l27.78-120.76c5.56-24.85,20.17-38.89,48.54-38.89,31.87,0,47.37,17.84,47.37,44.15v156.72h-34.21v-154.97c0-7.6-4.97-12.57-14.03-12.57-8.19,0-12.28,4.09-13.74,10.53l-28.36,120.76c-6.14,26.02-19.59,39.76-46.78,39.76s-41.81-14.33-47.66-39.76l-28.07-120.76c-1.46-6.43-5.85-10.53-13.74-10.53-9.06,0-14.03,4.97-14.03,12.57v154.97Z"/>
        <path class="cls-1" d="m2422.83,272.98v197.36h-34.5v-197.36h34.5Z"/>
        <path class="cls-1" d="m2490.08,470.34h-38.01l69.3-175.43c7.31-18.42,20.76-25.44,41.52-25.44s33.92,7.02,40.93,25.44l66.67,175.43h-38.3l-59.94-158.77c-1.75-4.68-4.97-6.72-9.65-6.72s-7.89,2.05-9.94,6.72l-62.57,158.77Z"/>
      </g>
    </g>
  </g>
</svg>