<?xml version="1.0" encoding="UTF-8"?>
<svg id="b" data-name="Capa 2" xmlns="http://www.w3.org/2000/svg" xmlns:xlink="http://www.w3.org/1999/xlink" viewBox="0 0 550 222.206">
  <defs>
    <style>
      .i {
        fill: url(#d);
      }

      .j {
        fill: url(#h);
      }

      .k {
        fill: url(#g);
      }

      .l {
        fill: url(#e);
      }

      .m {
        fill: url(#f);
      }
    </style>
    <linearGradient id="d" data-name="Degradado sin nombre 39" x1="188.914" y1="164.408" x2="472.616" y2="164.408" gradientUnits="userSpaceOnUse">
      <stop offset="0" stop-color="#edba29"/>
      <stop offset=".383" stop-color="#ffe387"/>
      <stop offset=".773" stop-color="#f5bd23"/>
      <stop offset="1" stop-color="#d7a416"/>
    </linearGradient>
    <linearGradient id="e" data-name="Degradado sin nombre 39" x1="111.529" y1="113.032" x2="550" y2="113.032" xlink:href="#d"/>
    <linearGradient id="f" data-name="Degradado sin nombre 39" x1="0" y1="111.103" x2="15.046" y2="111.103" xlink:href="#d"/>
    <linearGradient id="g" data-name="Degradado sin nombre 39" x1="18.623" y1="111.103" x2="33.669" y2="111.103" xlink:href="#d"/>
    <linearGradient id="h" data-name="Degradado sin nombre 39" x1="37.161" y1="111.103" x2="126.65" y2="111.103" xlink:href="#d"/>
  </defs>
  <g id="c" data-name="Negativo">
    <g>
      <path class="i" d="M198.344,155.283c-1.349,0-2.602.218-3.755.656-1.153.439-2.157,1.07-3.007,1.896s-1.508,1.8-1.973,2.92-.695,2.364-.695,3.729.231,2.608.695,3.729,1.122,2.094,1.973,2.92,1.854,1.457,3.007,1.895,2.406.658,3.755.658c1.296,0,2.372-.16,3.222-.48s1.639-.767,2.362-1.34v-4.07c-.386.438-.845.843-1.377,1.214-.53.371-1.125.665-1.783.885-.658.218-1.406.329-2.25.329-1.01,0-1.945-.232-2.805-.697-.86-.463-1.555-1.128-2.085-1.996-.533-.868-.798-1.884-.798-3.046,0-1.18.265-2.2.798-3.059.53-.86,1.225-1.521,2.085-1.985.86-.463,1.795-.695,2.805-.695.845,0,1.593.111,2.25.329.658.22,1.253.514,1.783.885.533.371.991.774,1.377,1.214v-4.07c-.723-.573-1.511-1.021-2.362-1.34-.851-.321-1.926-.48-3.222-.48ZM225.155,160.78c.461,1.122.695,2.356.695,3.704,0,1.331-.234,2.566-.695,3.704-.464,1.138-1.113,2.127-1.948,2.97s-1.82,1.496-2.958,1.959-2.39.695-3.755.695-2.615-.232-3.752-.695-2.129-1.116-2.97-1.959c-.845-.843-1.493-1.832-1.948-2.97s-.683-2.373-.683-3.704c0-1.348.237-2.582.707-3.704.471-1.12,1.128-2.094,1.973-2.92.841-.824,1.832-1.462,2.97-1.909,1.138-.446,2.372-.668,3.702-.668,1.349,0,2.587.223,3.718.668,1.128.447,2.119,1.085,2.97,1.909.851.826,1.508,1.8,1.973,2.92ZM222.007,164.484c0-1.13-.228-2.132-.683-3.009-.455-.876-1.097-1.568-1.923-2.072-.826-.506-1.795-.759-2.908-.759-1.094,0-2.057.252-2.88.759-.826.505-1.477,1.197-1.948,2.072-.471.877-.707,1.879-.707,3.009s.237,2.132.707,3.007c.471.877,1.122,1.568,1.948,2.074.823.505,1.786.757,2.88.757s2.057-.252,2.883-.757c.826-.506,1.471-1.197,1.935-2.074.461-.876.695-1.878.695-3.007ZM238.066,166.439l4.822,6.892h-4.273l-4.138-6.421h-1.578v6.421h-3.615v-17.695h5.943c1.399,0,2.587.235,3.562.707.979.472,1.73,1.13,2.25,1.971.524.843.785,1.829.785,2.958,0,1.113-.262,2.094-.785,2.947-.52.851-1.272,1.511-2.25,1.984-.218.105-.485.155-.723.237ZM237.73,162.803c.252-.396.377-.873.377-1.429s-.125-1.032-.377-1.427-.611-.7-1.075-.91-1.016-.316-1.655-.316h-2.1v5.309h2.1c.639,0,1.19-.106,1.655-.316s.823-.514,1.075-.91ZM243.819,158.896h4.753v14.435h3.615v-14.435h4.778v-3.26h-13.145v3.26ZM259.641,173.332h3.668v-17.695h-3.668v17.695ZM280.347,166.608l-12.59-11.856v18.58h3.49v-10.971l12.587,11.856v-18.58h-3.487v10.971ZM295.39,154.6l8.972,18.731h-4.095l-1.865-4.02h-6.069l-1.848,4.02h-4.07l8.975-18.731ZM297.583,166.455l-2.193-5.081-2.214,5.081h4.408ZM317.772,164.85c-.427-.43-.91-.796-1.44-1.1-.53-.302-1.081-.556-1.655-.757-.894-.304-1.636-.603-2.225-.898s-1.028-.608-1.315-.936c-.287-.327-.43-.711-.43-1.15s.178-.821.533-1.15c.352-.329.882-.492,1.593-.492.539,0,1.019.104,1.44.316.421.21.795.488,1.125.834.327.346.611.729.848,1.15l2.83-1.568c-.302-.623-.729-1.226-1.275-1.808-.548-.581-1.231-1.061-2.048-1.44-.82-.38-1.792-.569-2.92-.569-1.097,0-2.088.198-2.973.594-.882.396-1.583.96-2.097,1.694-.514.732-.77,1.605-.77,2.616,0,.843.159,1.563.48,2.161s.723,1.103,1.212,1.516c.489.414,1.007.751,1.555,1.011.548.262,1.032.467,1.455.62.792.302,1.462.586,2.007.846.548.262.963.561,1.24.898.277.338.418.784.418,1.34,0,.64-.228,1.147-.683,1.516-.455.371-1.047.556-1.77.556-.623,0-1.206-.134-1.745-.404s-1.032-.648-1.477-1.138c-.449-.489-.857-1.063-1.228-1.719l-2.577,1.82c.386.826.926,1.593,1.617,2.3s1.505,1.268,2.44,1.681,1.941.619,3.02.619c.81,0,1.58-.122,2.312-.366.735-.245,1.396-.598,1.985-1.061.589-.464,1.053-1.033,1.39-1.706.337-.675.508-1.441.508-2.301,0-.757-.125-1.427-.368-2.01-.246-.581-.583-1.086-1.013-1.516ZM345.085,159.794c.776,1.324,1.162,2.887,1.162,4.69s-.386,3.366-1.162,4.689-1.857,2.347-3.247,3.071c-1.393.726-3.014,1.088-4.868,1.088h-6.018v-17.695h6.018c1.854,0,3.475.362,4.868,1.086,1.39.725,2.471,1.748,3.247,3.071ZM342.532,164.484c0-.977-.15-1.815-.443-2.515-.296-.7-.704-1.278-1.228-1.733-.52-.455-1.128-.787-1.82-.997-.692-.212-1.424-.316-2.2-.316h-2.197v11.123h2.197c.776,0,1.508-.104,2.2-.316.692-.21,1.3-.544,1.82-.999.524-.455.932-1.032,1.228-1.731.293-.7.443-1.538.443-2.515ZM352.013,155.636h-2.328v17.695h11.25v-3.059h-7.76v-4.829h7.255v-3.007h-7.255v-3.741h7.76v-3.059h-8.922ZM381.762,155.283c-1.349,0-2.602.218-3.755.656-1.153.439-2.157,1.07-3.007,1.896s-1.508,1.8-1.973,2.92-.695,2.364-.695,3.729.231,2.608.695,3.729,1.122,2.094,1.973,2.92,1.854,1.457,3.007,1.895,2.406.658,3.755.658c1.296,0,2.372-.16,3.222-.48s1.639-.767,2.362-1.34v-4.07c-.386.438-.845.843-1.377,1.214-.53.371-1.125.665-1.783.885-.658.218-1.406.329-2.25.329-1.01,0-1.945-.232-2.805-.697-.86-.463-1.555-1.128-2.085-1.996-.533-.868-.798-1.884-.798-3.046,0-1.18.265-2.2.798-3.059.53-.86,1.225-1.521,2.085-1.985.86-.463,1.795-.695,2.805-.695.845,0,1.593.111,2.25.329.658.22,1.253.514,1.783.885.533.371.991.774,1.377,1.214v-4.07c-.723-.573-1.511-1.021-2.362-1.34-.851-.321-1.926-.48-3.222-.48ZM400.351,166.439l4.822,6.892h-4.273l-4.138-6.421h-1.578v6.421h-3.615v-17.695h5.943c1.399,0,2.587.235,3.562.707.979.472,1.73,1.13,2.25,1.971.524.843.785,1.829.785,2.958,0,1.113-.262,2.094-.785,2.947-.52.851-1.272,1.511-2.25,1.984-.218.105-.485.155-.723.237ZM400.015,162.803c.252-.396.377-.873.377-1.429s-.125-1.032-.377-1.427-.611-.7-1.075-.91-1.016-.316-1.655-.316h-2.1v5.309h2.1c.639,0,1.19-.106,1.655-.316s.823-.514,1.075-.91ZM407.875,173.332h3.668v-17.695h-3.668v17.695ZM426.848,164.85c-.427-.43-.91-.796-1.44-1.1-.53-.302-1.081-.556-1.655-.757-.894-.304-1.636-.603-2.225-.898s-1.028-.608-1.315-.936c-.287-.327-.43-.711-.43-1.15s.178-.821.533-1.15c.352-.329.882-.492,1.593-.492.539,0,1.019.104,1.44.316.421.21.795.488,1.125.834.327.346.611.729.848,1.15l2.83-1.568c-.302-.623-.729-1.226-1.275-1.808-.548-.581-1.231-1.061-2.048-1.44-.82-.38-1.792-.569-2.92-.569-1.097,0-2.088.198-2.973.594-.882.396-1.583.96-2.097,1.694-.514.732-.77,1.605-.77,2.616,0,.843.159,1.563.48,2.161s.723,1.103,1.212,1.516c.489.414,1.007.751,1.555,1.011.548.262,1.032.467,1.455.62.792.302,1.462.586,2.007.846.548.262.963.561,1.24.898.277.338.418.784.418,1.34,0,.64-.228,1.147-.683,1.516-.455.371-1.047.556-1.77.556-.623,0-1.206-.134-1.745-.404s-1.032-.648-1.477-1.138c-.449-.489-.857-1.063-1.228-1.719l-2.577,1.82c.386.826.926,1.593,1.617,2.3s1.505,1.268,2.44,1.681,1.942.619,3.02.619c.81,0,1.58-.122,2.312-.366.735-.245,1.396-.598,1.985-1.061.589-.464,1.053-1.033,1.39-1.706.337-.675.508-1.441.508-2.301,0-.757-.125-1.427-.368-2.01-.246-.581-.583-1.086-1.013-1.516ZM443.193,155.636h-13.145v3.26h4.753v14.435h3.615v-14.435h4.778v-3.26ZM450.42,154.6l8.972,18.731h-4.095l-1.865-4.02h-6.069l-1.848,4.02h-4.07l8.975-18.731ZM452.614,166.455l-2.193-5.081-2.214,5.081h4.408ZM465.56,155.636h-3.615v17.695h10.671v-3.16h-7.056v-14.535Z"/>
      <path class="l" d="M129.24,90.433v43.848c0,1.596.128,2.775.383,3.542.256.765.782,1.278,1.58,1.532.798.256,1.963.383,3.494.383h3.257c4.977,0,9.287-1.34,12.924-4.022,3.637-2.68,6.065-6.255,7.277-10.722.062-.192.252-.254.573-.192.318.064.48.192.48.383-.193,2.105-.383,4.643-.577,7.61-.19,2.968-.287,5.697-.287,8.185,0,.958-.477,1.437-1.437,1.437h-45.185c-.131,0-.193-.192-.193-.575s.062-.573.193-.573c1.976,0,3.447-.159,4.404-.478s1.611-.958,1.96-1.915c.352-.958.527-2.361.527-4.213v-44.325c0-1.851-.175-3.24-.527-4.165-.349-.924-1.003-1.563-1.96-1.915-.957-.349-2.428-.527-4.404-.527-.131,0-.193-.192-.193-.573s.062-.575.193-.575c1.53,0,3.366.048,5.504.143,2.138.097,4.357.143,6.654.143,2.425,0,4.659-.047,6.7-.143,2.044-.095,3.861-.143,5.457-.143.193,0,.29.192.29.575s-.097.573-.29.573c-1.913,0-3.366.178-4.354.527-.991.352-1.645,1.005-1.963,1.963-.321.957-.48,2.362-.48,4.212ZM215.69,94.836c0-3.381-.782-6.079-2.347-8.089-1.564-2.012-3.749-3.017-6.557-3.017-.128,0-.19-.192-.19-.573s.062-.575.19-.575c1.596,0,3.238.048,4.93.143,1.692.097,3.528.143,5.507.143,1.723,0,3.413-.047,5.074-.143,1.658-.095,3.191-.143,4.594-.143.128,0,.193.192.193.575s-.065.573-.193.573c-2.552,0-4.516,1.005-5.887,3.017-1.374,2.01-2.057,4.707-2.057,8.089v26.616c0,4.531-.991,8.472-2.97,11.822-1.979,3.352-4.756,5.937-8.327,7.755-3.578,1.818-7.757,2.728-12.544,2.728-4.659,0-8.823-.894-12.494-2.68s-6.541-4.357-8.614-7.707c-2.076-3.35-3.113-7.388-3.113-12.11v-30.923c0-1.851-.159-3.24-.477-4.165-.321-.924-.975-1.563-1.963-1.915-.991-.349-2.443-.527-4.357-.527-.19,0-.287-.192-.287-.573s.097-.575.287-.575c1.658,0,3.509.048,5.553.143,2.041.097,4.21.143,6.51.143,2.425,0,4.656-.047,6.7-.143,2.041-.095,3.861-.143,5.457-.143.193,0,.287.192.287.575s-.093.573-.287.573c-1.913,0-3.35.192-4.307.575s-1.614,1.053-1.963,2.01c-.352.958-.527,2.362-.527,4.213v27.379c0,7.85,1.564,13.533,4.69,17.042,3.129,3.511,7.308,5.265,12.544,5.265,5.295,0,9.443-1.611,12.444-4.835,3.001-3.222,4.5-7.833,4.5-13.834v-26.711ZM239.528,130.259l.957-45.475,2.777.192-1.053,45.283c-.062,3.384.623,6.065,2.06,8.042,1.437,1.979,3.462,2.968,6.08,2.968.19,0,.287.192.287.573s-.097.575-.287.575c-1.406,0-2.842-.031-4.31-.095s-3.126-.097-4.977-.097c-2.044,0-3.896.033-5.553.097-1.661.064-3.191.095-4.597.095-.19,0-.287-.192-.287-.575s.097-.573.287-.573c2.618,0,4.693-.989,6.224-2.968,1.533-1.977,2.331-4.658,2.393-8.042ZM308.077,141.27c.128,0,.19.192.19.573s-.062.575-.19.575c-1.661,0-3.543-.031-5.65-.095s-4.307-.097-6.604-.097c-2.362,0-4.566.033-6.607.097-2.044.064-3.896.095-5.553.095-.19,0-.287-.192-.287-.575s.097-.573.287-.573c3.001,0,4.93-.414,5.793-1.245.86-.829,1.197-2.616,1.003-5.362l-2.2-42.507,4.88-7.659-24.411,57.251c-.065.256-.305.383-.72.383s-.686-.128-.813-.383l-26.901-51.219c-2.428-4.531-5.329-6.799-8.714-6.799-.19,0-.287-.192-.287-.573s.097-.575.287-.575c1.343,0,2.746.033,4.213.095,1.468.065,2.711.097,3.733.097,1.661,0,3.113-.031,4.357-.097,1.243-.062,2.216-.095,2.92-.095.894,0,1.58.319,2.057.957.48.639,1.262,1.979,2.347,4.022l21.444,40.21-4.787,8.615,22.404-51.41c.383-.893.779-1.515,1.197-1.867.414-.351.972-.527,1.674-.527.639,0,1.309.033,2.013.095.701.065,1.53.097,2.487.097,2.041,0,3.783-.031,5.22-.097,1.434-.062,2.855-.095,4.26-.095.19,0,.287.192.287.575s-.097.573-.287.573c-2.939,0-5.092.608-6.463,1.82-1.374,1.212-1.995,3.096-1.867,5.649l2.297,43.463c.128,1.853.368,3.255.72,4.213.349.957,1.003,1.596,1.96,1.915.96.319,2.393.478,4.31.478ZM332.105,134.663c0,1.853.159,3.255.48,4.213.318.957.957,1.596,1.913,1.915.96.319,2.428.478,4.407.478.19,0,.287.192.287.573s-.097.575-.287.575c-1.661,0-3.512-.031-5.553-.095-2.044-.064-4.279-.097-6.703-.097-2.297,0-4.497.033-6.604.097s-3.989.095-5.65.095c-.128,0-.19-.192-.19-.575s.062-.573.19-.573c1.979,0,3.462-.159,4.453-.478.988-.319,1.658-.958,2.01-1.915.349-.958.527-2.361.527-4.213v-44.325c0-1.851-.178-3.24-.527-4.165-.352-.924-1.022-1.563-2.01-1.915-.991-.349-2.474-.527-4.453-.527-.128,0-.19-.192-.19-.573s.062-.575.19-.575c1.661,0,3.543.048,5.65.143,2.107.097,4.307.143,6.604.143,2.425,0,4.675-.047,6.75-.143,2.072-.095,3.908-.143,5.507-.143.19,0,.287.192.287.575s-.097.573-.287.573c-1.917,0-3.369.192-4.357.575-.991.383-1.645,1.053-1.963,2.01-.321.958-.48,2.362-.48,4.213v44.133ZM404.101,143.855c0,.19-.143.302-.433.335-.287.031-.492.014-.62-.048l-47.198-53.709c-2.3-2.616-4.245-4.388-5.84-5.314-1.596-.924-3.191-1.388-4.787-1.388-.128,0-.193-.192-.193-.573s.065-.575.193-.575c1.275,0,2.584.033,3.924.095,1.34.065,2.587.097,3.733.097,2.3,0,4.372-.031,6.224-.097,1.851-.062,3.288-.095,4.31-.095.829,0,1.449.368,1.867,1.102.414.734,1.387,2.026,2.92,3.877l35.135,40.497.767,15.797ZM355.272,130.259v-45.475l2.873.192v45.283c0,3.384.701,6.065,2.107,8.042,1.402,1.979,3.35,2.968,5.84,2.968.128,0,.19.192.19.573s-.062.575-.19.575c-1.406,0-2.858-.031-4.357-.095s-3.144-.097-4.93-.097c-1.913,0-3.78.033-5.6.097s-3.494.095-5.027.095c-.19,0-.287-.192-.287-.575s.097-.573.287-.573c2.808,0,5.027-.989,6.654-2.968,1.627-1.977,2.44-4.658,2.44-8.042ZM404.101,94.836v49.018l-2.777-2.873v-46.145c0-3.381-.704-6.079-2.107-8.089-1.406-2.012-3.35-3.017-5.84-3.017-.128,0-.19-.192-.19-.573s.062-.575.19-.575c1.402,0,2.855.048,4.357.143,1.499.097,3.141.143,4.93.143,1.723,0,3.413-.047,5.074-.143,1.658-.095,3.191-.143,4.597-.143.125,0,.19.192.19.575s-.065.573-.19.573c-2.555,0-4.566,1.005-6.033,3.017-1.468,2.01-2.2,4.707-2.2,8.089ZM482.124,141.27c.318,0,.48.192.48.573s-.162.575-.48.575c-1.913,0-3.908-.062-5.984-.192-2.076-.126-4.067-.192-5.984-.192-2.169,0-4.054.065-5.647.192-1.596.129-3.384.192-5.363.192-.256,0-.38-.192-.38-.575s.125-.573.38-.573c2.618,0,4.132-.527,4.55-1.58.414-1.053-.178-3.143-1.773-6.27l-19.434-38.391,4.69-8.234-19.051,42.03c-1.723,3.829-1.755,6.861-.097,9.094,1.661,2.236,4.276,3.352,7.85,3.352.321,0,.48.192.48.573s-.159.575-.48.575c-1.913,0-3.668-.062-5.264-.192-1.596-.126-3.606-.192-6.03-.192-2.49,0-4.488.065-5.984.192-1.502.129-3.338.192-5.507.192-.252,0-.383-.192-.383-.575s.131-.573.383-.573c1.723,0,3.207-.366,4.453-1.102,1.243-.732,2.487-2.072,3.733-4.02,1.243-1.946,2.665-4.706,4.26-8.282l20.774-45.667c.062-.192.349-.302.86-.335.511-.031.798.081.863.335l23.934,47.103c1.53,3,2.855,5.377,3.973,7.132,1.116,1.756,2.169,3.001,3.16,3.733.988.735,1.991,1.102,3.014,1.102ZM429.852,120.494l1.437-2.68h27.571l.67,2.68h-29.678ZM512.185,82.296c5.871,0,10.387,1.069,13.547,3.207,3.157,2.139,4.737,5.122,4.737,8.952,0,3.766-1.053,7.101-3.157,10.004-2.107,2.905-4.806,5.155-8.09,6.75-3.288,1.596-6.75,2.393-10.387,2.393h-2.73c-.926,0-1.77-.033-2.537-.097v21.158c0,1.853.159,3.255.48,4.213.318.957.957,1.596,1.913,1.915s2.425.478,4.404.478c.128,0,.193.192.193.573s-.065.575-.193.575c-1.661,0-3.509-.031-5.553-.095-2.041-.064-4.276-.097-6.7-.097-2.297,0-4.485.033-6.557.097-2.076.064-3.942.095-5.6.095-.193,0-.29-.192-.29-.575s.097-.573.29-.573c1.976,0,3.444-.159,4.404-.478.957-.319,1.611-.958,1.96-1.915.352-.958.527-2.361.527-4.213v-44.325c0-1.851-.159-3.24-.477-4.165-.321-.924-.957-1.563-1.917-1.915-.957-.349-2.425-.527-4.404-.527-.128,0-.19-.192-.19-.573s.062-.575.19-.575c1.661,0,3.509.048,5.553.143,2.041.097,4.213.143,6.51.143,2.107,0,4.419-.095,6.94-.287s4.899-.287,7.134-.287ZM519.555,98.091c0-3.765-.383-6.636-1.147-8.615-.767-1.977-1.82-3.335-3.16-4.07-1.34-.732-2.873-1.1-4.597-1.1-2.552,0-4.372.478-5.457,1.437-1.085.957-1.627,2.552-1.627,4.787v20.296c.894.128,1.851.224,2.873.287,1.019.064,1.913.097,2.68.097,3.765,0,6.445-1.038,8.04-3.112,1.596-2.074,2.393-5.41,2.393-10.005ZM532.769,142.418c-.96,0-2.506-1.197-4.643-3.59-2.141-2.393-4.709-5.854-7.707-10.387-3.001-4.531-6.382-9.957-10.15-16.276l8.81-2.68c5.105,7.723,9.462,13.915,13.067,18.572,3.606,4.659,6.813,8.026,9.62,10.1s5.488,3.112,8.044,3.112c.128,0,.19.192.19.573s-.062.575-.19.575h-17.041Z"/>
      <g>
        <polygon class="m" points="14.906 190.613 15.046 196.679 0 202.741 0 19.465 14.915 25.532 14.915 31.852 6.067 28.566 6.067 193.893 14.906 190.613"/>
        <polygon class="k" points="24.69 204.679 24.69 17.78 33.538 21.066 33.538 14.746 18.623 8.679 18.623 213.527 33.669 207.465 33.529 201.399 24.69 204.679"/>
        <path class="j" d="M120.583,180.748l-77.354,32.357c-.031-67.684.013-135.52,0-203.245l77.354,36.149v10.943h6.067v-14.987L37.161,0v222.206l89.489-37.793v-14.577h-6.067v10.912Z"/>
      </g>
    </g>
  </g>
</svg>